<svg id="Capa_1" enable-background="new 0 0 512 512" height="512" viewBox="0 0 512 512" width="512" xmlns="http://www.w3.org/2000/svg"><path d="m419.416 70.292-20.146-40.292h6.73c8.284 0 15-6.716 15-15s-6.716-15-15-15h-31-238-31c-8.284 0-15 6.716-15 15s6.716 15 15 15h6.729l-20.146 40.292.008.013c-1.009 2.017-1.591 4.286-1.591 6.695v313.233 46.767c0 6.528 4.178 12.067 10 14.128v25.872c0 19.299 15.701 35 35 35h240c19.299 0 35-15.701 35-35v-25.872c5.822-2.061 10-7.6 10-14.128v-360c0-2.409-.582-4.678-1.592-6.696zm-28.416 351.708h-143.448c36.913-33.662 69.603-85.829 69.603-165 0-56.912 20.584-96.346 37.852-119.405 11.501-15.359 24.515-27.427 35.994-35.576v319.981zm-244.729-392h219.459l16 32h-97.352-154.107zm-25.271 62h128.974c-28.784 35.8-55.128 89.26-55.128 165 0 65.094-36.737 96.781-73.846 112.182zm0 309.233c43.099-14.892 103.846-52.221 103.846-144.233 0-36.924 6.905-70.869 20.523-100.892 10.853-23.928 25.983-45.469 45.014-64.108h65.469c-8.353 7.695-16.819 16.876-24.86 27.613-19.999 26.706-43.838 72.22-43.838 137.387 0 39.401-9.197 74.338-27.336 103.84-14.784 24.044-35.501 44.604-61.618 61.16h-77.2zm260 75.767c0 2.757-2.243 5-5 5h-240c-2.757 0-5-2.243-5-5v-25h71.479 178.521z"/></svg>